<?xml version="1.0" encoding="utf-8"?>
<!-- Generator: Adobe Illustrator 25.2.1, SVG Export Plug-In . SVG Version: 6.00 Build 0)  -->
<svg version="1.1" id="Layer_1" xmlns="http://www.w3.org/2000/svg" xmlns:xlink="http://www.w3.org/1999/xlink" x="0px" y="0px"
	 viewBox="0 0 841.5 356.3" style="enable-background:new 0 0 841.5 356.3;" xml:space="preserve">
<style type="text/css">
	.st0{fill:#FF0000;}
</style>
<g>
	<rect x="102.2" y="39.8" width="39.8" height="18.8"/>
	<polygon points="187.8,18.2 235.3,18.2 235.3,0 166.2,0 166.2,98.3 187.8,98.3 187.8,57.7 229,57.7 229,40.9 187.8,40.9 	"/>
	<path d="M266.7,60.3l12.8-36.1h0.3l12.4,36.1H266.7z M268.7,0l-37.3,98.3h21.9l7.7-21.9h36.8l7.4,21.9h22.4L290.9,0H268.7z"/>
	<polygon points="61.6,39.7 21.8,39.7 21.8,0 0.2,0 0.2,98.3 21.8,98.3 21.8,58.4 61.6,58.4 61.6,98.3 83.2,98.3 83.2,0 61.6,0 	"/>
	<polygon points="490.6,67.6 490.4,67.6 467.4,0 437,0 437,98.3 457.2,98.3 457.2,29.3 457.5,29.3 481.6,98.3 498.2,98.3 
		522.3,28.6 522.6,28.6 522.6,98.3 542.8,98.3 542.8,0 512.4,0 	"/>
	<path d="M382.4,44.5h-23.7V16.8h23.7c9.6,0,14.9,4.1,14.9,13.6C397.3,40.3,392.1,44.5,382.4,44.5 M403.4,52v-0.3
		c10.9-4.4,15.6-13.1,15.6-24.6c0-14.9-11.1-27.1-28.8-27.1h-53v98.3h21.6V59.9h21.6c10.9,0,14.9,4.5,16.4,14.9
		c1.1,7.9,0.8,17.3,3.5,23.5h21.6c-3.8-5.5-3.7-17.1-4.1-23.3C417,65.1,414,54.8,403.4,52"/>
</g>
<g>
	<path class="st0" d="M42.7,128.2c6.4,0,12.3,1,17.8,3.1c5.5,2,10.3,5.1,14.3,9.2c4,4.1,7.2,9.2,9.4,15.3c2.3,6.1,3.4,13.3,3.4,21.5
		c0,7.2-0.9,13.9-2.8,20c-1.9,6.1-4.6,11.4-8.4,15.8c-3.7,4.4-8.4,7.9-14,10.5c-5.6,2.5-12.2,3.8-19.8,3.8H0v-99H42.7z M41.2,209
		c3.1,0,6.2-0.5,9.2-1.5c3-1,5.6-2.7,7.9-5.1c2.3-2.4,4.2-5.4,5.5-9.2c1.4-3.8,2.1-8.4,2.1-13.9c0-5-0.5-9.5-1.5-13.5
		c-1-4-2.6-7.5-4.8-10.3c-2.2-2.9-5.2-5.1-8.8-6.6c-3.7-1.5-8.2-2.3-13.5-2.3H21.8V209H41.2z"/>
	<path class="st0" d="M126.4,128.2v99h-21.8v-99H126.4z"/>
	<path class="st0" d="M206,226.5c-4.7,2-9.5,3-14.3,3c-7.6,0-14.4-1.3-20.5-4c-6.1-2.6-11.2-6.3-15.3-10.9
		c-4.2-4.6-7.4-10.1-9.6-16.3c-2.2-6.2-3.3-13-3.3-20.2c0-7.4,1.1-14.3,3.3-20.6c2.2-6.3,5.4-11.9,9.6-16.6
		c4.2-4.7,9.3-8.4,15.3-11.1c6.1-2.7,12.9-4,20.5-4c5.1,0,10,0.8,14.8,2.3c4.8,1.5,9.1,3.8,12.9,6.7c3.8,3,7,6.6,9.5,11
		c2.5,4.3,4,9.3,4.6,15h-20.8c-1.3-5.5-3.8-9.7-7.5-12.5c-3.7-2.8-8.2-4.2-13.5-4.2c-4.9,0-9.1,0.9-12.5,2.8
		c-3.4,1.9-6.2,4.4-8.3,7.6c-2.1,3.2-3.7,6.8-4.6,10.9c-1,4.1-1.5,8.3-1.5,12.6c0,4.2,0.5,8.2,1.5,12.1c1,3.9,2.5,7.5,4.6,10.6
		c2.1,3.1,4.9,5.7,8.3,7.6c3.4,1.9,7.6,2.8,12.5,2.8c7.2,0,12.8-1.8,16.7-5.5c3.9-3.7,6.2-8.9,6.9-15.9h-21.9v-16.2H235v53.5h-13.9
		l-2.2-11.2C215,221,210.7,224.5,206,226.5z"/>
	<path class="st0" d="M276.2,128.2v99h-21.8v-99H276.2z"/>
	<path class="st0" d="M289.3,146.5v-18.3h81.1v18.3h-29.7v80.7H319v-80.7H289.3z"/>
	<path class="st0" d="M420.3,128.2l37,99h-22.6l-7.5-22.1h-37l-7.8,22.1h-21.9l37.5-99H420.3z M421.5,189L409,152.6h-0.3L395.9,189
		H421.5z"/>
	<path class="st0" d="M489.5,128.2V209h48.3v18.3h-70v-99H489.5z"/>
	<path class="st0" d="M30.7,257.3l23.2,68.1h0.3L76,257.3h30.7v99H86.3v-70.2H86l-24.3,70.2H44.9l-24.3-69.5h-0.3v69.5H0v-99H30.7z"
		/>
	<path class="st0" d="M177,257.3l37,99h-22.6l-7.5-22.1h-37l-7.8,22.1h-21.9l37.5-99H177z M178.2,318l-12.5-36.3h-0.3L152.6,318
		H178.2z"/>
	<path class="st0" d="M277.8,257.3c4.4,0,8.4,0.7,12,2.2c3.6,1.4,6.6,3.4,9.2,5.9c2.5,2.5,4.5,5.4,5.8,8.7c1.3,3.3,2,6.8,2,10.6
		c0,5.8-1.2,10.9-3.7,15.1c-2.5,4.3-6.5,7.5-12,9.7v0.3c2.7,0.7,4.9,1.9,6.7,3.4c1.8,1.5,3.2,3.3,4.3,5.4c1.1,2.1,1.9,4.4,2.4,6.9
		c0.5,2.5,0.9,5,1,7.5c0.1,1.6,0.2,3.4,0.3,5.5c0.1,2.1,0.3,4.3,0.5,6.5c0.2,2.2,0.6,4.3,1.1,6.3c0.5,2,1.3,3.7,2.3,5.1H288
		c-1.2-3.1-1.9-6.9-2.2-11.2c-0.3-4.3-0.7-8.5-1.2-12.5c-0.7-5.2-2.3-9-4.7-11.4c-2.4-2.4-6.3-3.6-11.8-3.6h-21.8v38.7h-21.8v-99
		H277.8z M270.1,302.1c5,0,8.7-1.1,11.2-3.3c2.5-2.2,3.7-5.8,3.7-10.8c0-4.8-1.2-8.3-3.7-10.5c-2.5-2.2-6.2-3.3-11.2-3.3h-23.9v27.9
		H270.1z"/>
	<path class="st0" d="M348.2,257.3v41.1l38.7-41.1H414l-38.7,39.1l42.4,59.9h-27.3l-29.8-44.5l-12.5,12.6v31.9h-21.8v-99H348.2z"/>
	<path class="st0" d="M502.4,257.3v18.3h-52.3v21.2h48v16.9h-48V338h53.4v18.3h-75.2v-99H502.4z"/>
	<path class="st0" d="M512.2,275.6v-18.3h81.1v18.3h-29.7v80.7h-21.8v-80.7H512.2z"/>
	<path class="st0" d="M628.3,257.3v99h-21.8v-99H628.3z"/>
	<path class="st0" d="M670.9,257.3l41.3,66.4h0.3v-66.4h20.4v99h-21.8L670,290h-0.3v66.3h-20.4v-99H670.9z"/>
	<path class="st0" d="M812.5,355.6c-4.7,2-9.5,3-14.3,3c-7.6,0-14.4-1.3-20.5-4c-6.1-2.6-11.2-6.3-15.3-10.9
		c-4.2-4.6-7.4-10.1-9.6-16.3c-2.2-6.2-3.3-13-3.3-20.2c0-7.4,1.1-14.3,3.3-20.6c2.2-6.3,5.4-11.9,9.6-16.6
		c4.2-4.7,9.3-8.4,15.3-11.1c6.1-2.7,12.9-4,20.5-4c5.1,0,10,0.8,14.8,2.3c4.8,1.5,9.1,3.8,12.9,6.7c3.8,3,7,6.6,9.5,11
		c2.5,4.3,4,9.3,4.6,15h-20.8c-1.3-5.5-3.8-9.7-7.5-12.5c-3.7-2.8-8.2-4.2-13.5-4.2c-4.9,0-9.1,0.9-12.5,2.8
		c-3.4,1.9-6.2,4.4-8.3,7.6c-2.1,3.2-3.7,6.8-4.6,10.9c-1,4.1-1.5,8.3-1.5,12.6c0,4.2,0.5,8.2,1.5,12.1c1,3.9,2.5,7.5,4.6,10.6
		c2.1,3.1,4.9,5.7,8.3,7.6c3.4,1.9,7.6,2.8,12.5,2.8c7.2,0,12.8-1.8,16.7-5.5c3.9-3.7,6.2-8.9,6.9-15.9h-21.9v-16.2h41.6v53.5h-13.9
		l-2.2-11.2C821.6,350.1,817.3,353.6,812.5,355.6z"/>
</g>
</svg>
